<?xml version="1.0" encoding="utf-8"?>
<!-- Generator: Adobe Illustrator 18.1.1, SVG Export Plug-In . SVG Version: 6.00 Build 0)  -->
<!DOCTYPE svg PUBLIC "-//W3C//DTD SVG 1.1//EN" "http://www.w3.org/Graphics/SVG/1.1/DTD/svg11.dtd">
<svg version="1.1" id="Layer_1" xmlns="http://www.w3.org/2000/svg" xmlns:xlink="http://www.w3.org/1999/xlink" x="0px" y="0px"
	 width="595.3px" height="841.9px" viewBox="0 0 595.3 841.9" enable-background="new 0 0 595.3 841.9" xml:space="preserve">
<g>
	<circle fill="#FFFFFF" stroke="#CECECD" stroke-miterlimit="10" cx="294.1" cy="387.2" r="69.3"/>
	<circle fill="#5F327C" cx="294.1" cy="387.2" r="58.7"/>
	<path fill="#8B55A1" d="M251.1,427.1c10.7,11.6,25.9,18.7,42.9,18.7c17.2,0,32.7-7.4,43.4-19.1c-4-8.3-10.5-15.2-18.4-19.9
		c3.7-5,5.8-11.1,5.8-17.8c0-16.7-13.6-30.4-30.4-30.4s-30.4,13.6-30.4,30.4c0,6.6,2.1,12.7,5.8,17.8
		C261.7,411.6,255.2,418.6,251.1,427.1z"/>
	<rect x="235.7" y="472.6" fill="#351D47" width="117.1" height="4.1"/>
	<rect x="235.5" y="482.6" fill="#351D47" width="117.1" height="4.1"/>
	<rect x="235.5" y="493.3" fill="#351D47" width="117.1" height="4.1"/>
</g>
<g>
	<circle fill="#FFFFFF" stroke="#CECECD" stroke-miterlimit="10" cx="469.2" cy="387.6" r="69.3"/>
	<circle fill="#5F327C" cx="469.2" cy="387.6" r="58.7"/>
	<path fill="#8B55A1" d="M426.2,427.5c10.7,11.6,25.9,18.7,42.9,18.7c17.2,0,32.7-7.4,43.4-19.1c-4-8.3-10.5-15.2-18.4-19.9
		c3.7-5,5.8-11.1,5.8-17.8c0-16.7-13.6-30.4-30.4-30.4S439,372.6,439,389.5c0,6.6,2.1,12.7,5.8,17.8
		C436.8,412,430.3,419,426.2,427.5z"/>
	<rect x="410.8" y="473" fill="#351D47" width="117.1" height="4.1"/>
	<rect x="410.6" y="483.1" fill="#351D47" width="117.1" height="4.1"/>
	<rect x="410.6" y="493.7" fill="#351D47" width="117.1" height="4.1"/>
</g>
<g>
	<circle fill="#FFFFFF" stroke="#CECECD" stroke-miterlimit="10" cx="110.5" cy="386.8" r="69.3"/>
	<circle fill="#5F327C" cx="110.5" cy="386.8" r="58.7"/>
	<path fill="#8B55A1" d="M67.5,426.7c10.7,11.6,25.9,18.7,42.9,18.7c17.2,0,32.7-7.4,43.4-19.1c-4-8.3-10.5-15.2-18.4-19.9
		c3.7-5,5.8-11.1,5.8-17.8c0-16.7-13.6-30.4-30.4-30.4s-30.4,13.6-30.4,30.4c0,6.6,2.1,12.7,5.8,17.8
		C78.1,411.2,71.6,418.2,67.5,426.7z"/>
	<rect x="52.2" y="472.2" fill="#351D47" width="117.1" height="4.1"/>
	<rect x="51.9" y="482.2" fill="#351D47" width="117.1" height="4.1"/>
	<rect x="51.9" y="492.8" fill="#351D47" width="117.1" height="4.1"/>
</g>
<rect x="52.2" y="284.9" fill="#351D47" width="490.3" height="4.1"/>
<polygon fill="#351D47" points="61.8,297.2 44,286.9 61.8,276.7 "/>
<rect x="571.2" y="325.8" fill="#351D47" width="4.1" height="157.2"/>
<polygon fill="#351D47" points="542.4,276.7 560.2,286.9 542.4,297.2 "/>
<polygon fill="#351D47" points="563,327.2 573.2,309.4 583.5,327.2 "/>
<polygon fill="#351D47" points="584.1,477.4 573.9,495.2 563.6,477.4 "/>
</svg>
